<?xml version="1.0" encoding="UTF-8"?>
<!DOCTYPE svg PUBLIC "-//W3C//DTD SVG 1.1//EN" "http://www.w3.org/Graphics/SVG/1.1/DTD/svg11.dtd">
<!-- Creator: CorelDRAW X8 -->
<svg xmlns="http://www.w3.org/2000/svg" xml:space="preserve" width="64.0489mm" height="122.751mm" version="1.1" style="shape-rendering:geometricPrecision; text-rendering:geometricPrecision; image-rendering:optimizeQuality; fill-rule:evenodd; clip-rule:evenodd"
viewBox="0 0 1047 2006"
 xmlns:xlink="http://www.w3.org/1999/xlink">
 <defs>
  <style type="text/css">
   <![CDATA[
    .str2 {stroke:black;stroke-width:1.38239}
    .str1 {stroke:black;stroke-width:1.38403}
    .str0 {stroke:black;stroke-width:3.26807}
    .str3 {stroke:black;stroke-width:1.24513}
    .fil3 {fill:none}
    .fil2 {fill:#543400}
    .fil1 {fill:#6E4400}
    .fil0 {fill:#F7EFE1}
   ]]>
  </style>
 </defs>
 <g id="Camada_x0020_1">
  <metadata id="CorelCorpID_0Corel-Layer"/>
  <path class="fil0 str0" d="M49 423l-46 -219 205 172c-83,-152 -93,-267 -53,-357l151 332c232,158 411,343 478,585l-139 25 -358 -176 -238 -362z"/>
  <path class="fil1" d="M508 1556c154,-115 314,-207 508,-185 32,36 39,90 3,176 -22,-187 -266,-56 -531,103l20 -94z"/>
  <path class="fil1" d="M131 1841c-117,-188 -148,-380 -52,-505 142,-186 532,-397 709,-411 14,16 5,82 33,111 38,39 89,61 91,95 -710,101 -792,550 -644,601l-137 109z"/>
  <ellipse class="fil2" cx="353" cy="1601" rx="145" ry="166"/>
  <path class="fil2" d="M278 1459c150,-183 351,-304 634,-328l101 230c-223,5 -391,76 -516,200l-219 -102z"/>
  <path class="fil3 str1" d="M327 1777c109,-48 163,-90 161,-127 321,-206 498,-247 531,-122 37,-71 36,-123 -3,-157 -43,-163 -111,-277 -206,-343 15,-45 -10,-71 -75,-80"/>
  <path class="fil3 str1" d="M488 1650c37,-139 -27,-204 -192,-195 -137,114 -126,221 31,322"/>
  <path class="fil3 str1" d="M331 1454c221,-198 427,-284 620,-257"/>
  <path class="fil3 str1" d="M233 1502c165,-226 391,-350 679,-371"/>
  <path class="fil3 str2" d="M498 1566c139,-142 312,-207 518,-195"/>
  <path class="fil3 str2" d="M998 1487c29,-49 22,-88 -23,-117"/>
  <path class="fil3 str2" d="M966 1465c17,-45 4,-77 -39,-94"/>
  <path class="fil3 str2" d="M877 1375c33,39 39,67 17,84"/>
  <path class="fil3 str2" d="M814 1386c30,21 40,48 30,83"/>
  <path class="fil3 str2" d="M769 1405c16,20 21,48 16,84"/>
  <path class="fil3 str2" d="M713 1418c18,23 23,55 14,96"/>
  <path class="fil3 str2" d="M651 1453c9,37 9,69 -1,96"/>
  <path class="fil3 str2" d="M579 1495c13,27 3,65 -31,112"/>
  <path class="fil3 str2" d="M327 1777c0,71 -14,122 -40,151"/>
  <path class="fil3 str2" d="M825 1141c-27,-46 -52,-71 -75,-77"/>
  <path class="fil3 str2" d="M672 1080c34,28 49,56 45,84"/>
  <path class="fil3 str2" d="M583 1107c37,17 56,44 57,81"/>
  <path class="fil3 str2" d="M521 1128c33,31 50,60 52,88"/>
  <path class="fil3 str2" d="M449 1160c39,20 61,49 65,87"/>
  <path class="fil3 str2" d="M395 1199c32,26 51,54 59,85"/>
  <path class="fil3 str2" d="M338 1236c22,32 45,60 68,84"/>
  <path class="fil3 str2" d="M276 1280c33,49 59,78 79,84"/>
  <path class="fil3 str2" d="M211 1325c34,43 69,69 103,79"/>
  <path class="fil3 str2" d="M158 1420c34,17 73,26 118,27"/>
  <path class="fil3 str2" d="M119 1508c35,-3 73,-5 114,-6"/>
  <path class="fil3 str2" d="M111 1584c40,4 71,1 95,-9"/>
  <path class="fil3 str2" d="M92 1662c57,10 94,1 112,-26"/>
  <path class="fil3 str2" d="M189 1782c-99,88 -136,162 -113,224"/>
  <line class="fil3 str2" x1="605" y1="1299" x2="562" y2= "1468" />
  <polygon class="fil3 str2" points="605,1299 491,1372 556,1476 668,1397 "/>
  <line class="fil3 str2" x1="448" y1="1369" x2="538" y2= "1514" />
  <line class="fil3 str2" x1="625" y1="1267" x2="707" y2= "1408" />
  <line class="fil3 str2" x1="705" y1="1230" x2="932" y2= "1347" />
  <line class="fil3 str2" x1="869" y1="1199" x2="783" y2= "1382" />
  <line class="fil3 str2" x1="691" y1="1230" x2="776" y2= "1396" />
  <line class="fil3 str2" x1="879" y1="1204" x2="937" y2= "1365" />
  <line class="fil3 str2" x1="787" y1="1373" x2="932" y2= "1347" />
  <path class="fil3 str2" d="M888 1192c55,82 84,141 87,178"/>
  <path class="fil3 str2" d="M172 1784c-68,-133 -69,-263 -3,-392 217,-209 431,-330 641,-364"/>
  <path class="fil3 str2" d="M90 1749c-23,53 1,59 74,19"/>
  <path class="fil3 str2" d="M145 1825c-32,-4 -43,-16 -32,-34"/>
  <path class="fil3 str2" d="M142 1740c-59,22 -86,4 -80,-55"/>
  <path class="fil3 str2" d="M95 1693c-88,-31 -82,-58 19,-83"/>
  <path class="fil3 str2" d="M43 1637c-37,-55 -16,-84 64,-85"/>
  <path class="fil3 str2" d="M36 1569c-31,-84 0,-111 91,-81"/>
  <path class="fil3 str2" d="M38 1484c-10,-105 30,-126 120,-64"/>
  <path class="fil3 str2" d="M62 1389c34,-101 86,-119 157,-54"/>
  <path class="fil3 str2" d="M122 1302c65,-92 119,-96 161,-12"/>
  <path class="fil3 str2" d="M211 1230c52,-88 103,-89 152,-2"/>
  <path class="fil3 str2" d="M301 1159c37,-78 86,-75 149,10"/>
  <path class="fil3 str2" d="M361 1103c78,-94 135,-88 172,19"/>
  <path class="fil3 str2" d="M458 1037c92,-62 151,-48 176,39"/>
  <path class="fil3 str2" d="M573 1001c68,-65 118,-51 150,40"/>
  <path class="fil3 str2" d="M659 962c115,-56 165,-34 151,66"/>
  <path class="fil3 str3" d="M286 767c121,11 173,3 156,-24"/>
  <path class="fil3 str3" d="M50 435c80,23 145,32 195,27"/>
  <path class="fil3 str0" d="M795 944c-111,-279 -279,-480 -504,-601"/>
  <path class="fil3 str0" d="M319 381c-56,-129 -109,-255 -159,-380"/>
  <path class="fil3 str0" d="M160 1c-44,141 -23,269 62,384"/>
  <path class="fil3 str0" d="M659 962c-319,-329 -473,-550 -464,-664"/>
  <path class="fil3 str0" d="M258 479c81,51 132,61 151,30"/>
  <path class="fil3 str0" d="M358 623c70,43 132,50 185,21"/>
  <path class="fil3 str0" d="M15 214c193,325 384,565 574,720"/>
  <path class="fil3 str0" d="M781 926c-283,-294 -452,-483 -505,-566"/>
  <path class="fil3 str0" d="M139 559c102,98 166,142 194,130"/>
  <path class="fil3 str0" d="M491 846c-98,-45 -187,-98 -267,-158"/>
  <path class="fil3 str0" d="M22 295c34,62 69,94 103,96"/>
  <path class="fil3 str0" d="M11 242c33,57 53,85 59,82"/>
  <path class="fil3 str0" d="M105 290c39,63 54,109 44,137"/>
  <path class="fil3 str0" d="M174 61c9,117 32,204 69,261"/>
 </g>
</svg>
