<?xml version="1.0" encoding="UTF-8"?>
<!DOCTYPE svg PUBLIC "-//W3C//DTD SVG 1.1//EN" "http://www.w3.org/Graphics/SVG/1.1/DTD/svg11.dtd">
<!-- Creator: CorelDRAW X8 -->
<svg xmlns="http://www.w3.org/2000/svg" xml:space="preserve" width="95.9644mm" height="122.751mm" version="1.1" style="shape-rendering:geometricPrecision; text-rendering:geometricPrecision; image-rendering:optimizeQuality; fill-rule:evenodd; clip-rule:evenodd"
viewBox="0 0 2806 3590"
 xmlns:xlink="http://www.w3.org/1999/xlink">
 <defs>
  <style type="text/css">
   <![CDATA[
    .str2 {stroke:black;stroke-width:2.47414}
    .str1 {stroke:black;stroke-width:2.47707}
    .str0 {stroke:black;stroke-width:5.84904}
    .str3 {stroke:black;stroke-width:2.22848}
    .fil3 {fill:none}
    .fil2 {fill:#543400}
    .fil1 {fill:#6E4400}
    .fil0 {fill:#F7EFE1}
   ]]>
  </style>
 </defs>
 <g id="Camada_x0020_1">
  <metadata id="CorelCorpID_0Corel-Layer"/>
  <path class="fil0 str0" d="M1022 756l-84 -391 367 308c-148,-273 -166,-479 -95,-639l271 594c415,283 735,614 855,1047l-249 45 -730 474c-509,7 -984,-42 -1353,-266 74,-142 158,-241 274,-203l73 -298c-128,-79 -167,-180 -162,-293 140,-133 303,-189 485,-174 -75,-113 -102,-226 -87,-339l435 135z"/>
  <path class="fil1" d="M1842 2785c275,-206 563,-370 909,-331 59,64 71,161 5,315 -38,-334 -476,-101 -949,184l35 -168z"/>
  <path class="fil1" d="M1168 3294c-209,-335 -265,-679 -93,-904 254,-331 953,-709 1269,-734 25,27 9,147 59,198 68,71 158,110 162,171 -1270,179 -1418,983 -1152,1075l-245 194z"/>
  <ellipse class="fil2" cx="1565" cy="2865" rx="259" ry="297"/>
  <path class="fil2" d="M1431 2611c268,-327 628,-545 1134,-586l181 410c-399,9 -700,136 -923,359l-392 -183z"/>
  <path class="fil3 str1" d="M1520 3180c194,-85 290,-160 287,-227 574,-369 890,-442 949,-217 67,-128 66,-222 -5,-282 -76,-292 -199,-497 -369,-615 28,-79 -17,-127 -134,-142"/>
  <path class="fil3 str1" d="M1807 2953c66,-249 -48,-365 -343,-349 -245,203 -227,395 56,576"/>
  <path class="fil3 str1" d="M1527 2603c394,-355 764,-509 1109,-461"/>
  <path class="fil3 str1" d="M1351 2688c294,-404 699,-625 1214,-663"/>
  <path class="fil3 str2" d="M1824 2802c250,-254 559,-370 927,-348"/>
  <path class="fil3 str2" d="M2719 2662c53,-89 40,-159 -40,-211"/>
  <path class="fil3 str2" d="M2662 2622c31,-81 8,-138 -70,-169"/>
  <path class="fil3 str2" d="M2503 2461c60,69 70,119 31,150"/>
  <path class="fil3 str2" d="M2390 2481c54,37 72,86 55,148"/>
  <path class="fil3 str2" d="M2310 2515c28,35 37,85 28,150"/>
  <path class="fil3 str2" d="M2209 2538c33,42 41,99 25,172"/>
  <path class="fil3 str2" d="M2098 2600c17,67 17,124 -2,172"/>
  <path class="fil3 str2" d="M1969 2675c24,49 6,116 -54,202"/>
  <path class="fil3 str2" d="M1520 3180c-2,128 -26,218 -73,270"/>
  <path class="fil3 str2" d="M2411 2042c-49,-82 -93,-127 -135,-137"/>
  <path class="fil3 str2" d="M2137 1933c60,50 87,99 80,150"/>
  <path class="fil3 str2" d="M1978 1980c65,31 99,80 101,146"/>
  <path class="fil3 str2" d="M1866 2020c59,54 90,106 92,157"/>
  <path class="fil3 str2" d="M1737 2075c70,37 109,89 117,156"/>
  <path class="fil3 str2" d="M1640 2145c57,47 92,98 105,154"/>
  <path class="fil3 str2" d="M1539 2212c39,58 79,108 120,151"/>
  <path class="fil3 str2" d="M1427 2290c59,89 106,140 141,151"/>
  <path class="fil3 str2" d="M1310 2371c62,77 124,124 186,142"/>
  <path class="fil3 str2" d="M1215 2542c62,30 132,46 212,48"/>
  <path class="fil3 str2" d="M1145 2698c64,-4 132,-8 206,-10"/>
  <path class="fil3 str2" d="M1131 2835c72,7 129,1 171,-16"/>
  <path class="fil3 str2" d="M1098 2975c102,17 169,2 200,-47"/>
  <path class="fil3 str2" d="M1273 3190c-178,156 -246,289 -203,399"/>
  <line class="fil3 str2" x1="2016" y1="2325" x2="1939" y2= "2628" />
  <polygon class="fil3 str2" points="2016,2325 1812,2456 1928,2642 2129,2501 "/>
  <line class="fil3 str2" x1="1735" y1="2451" x2="1896" y2= "2709" />
  <line class="fil3 str2" x1="2052" y1="2268" x2="2199" y2= "2520" />
  <line class="fil3 str2" x1="2195" y1="2202" x2="2601" y2= "2412" />
  <line class="fil3 str2" x1="2489" y1="2146" x2="2334" y2= "2473" />
  <line class="fil3 str2" x1="2170" y1="2202" x2="2323" y2= "2498" />
  <line class="fil3 str2" x1="2507" y1="2155" x2="2611" y2= "2442" />
  <line class="fil3 str2" x1="2342" y1="2457" x2="2601" y2= "2412" />
  <path class="fil3 str2" d="M2523 2133c98,146 150,252 156,318"/>
  <path class="fil3 str2" d="M1241 3192c-121,-237 -123,-470 -5,-701 388,-373 771,-590 1146,-652"/>
  <path class="fil3 str2" d="M1094 3130c-41,95 3,106 133,34"/>
  <path class="fil3 str2" d="M1193 3267c-57,-8 -76,-29 -57,-61"/>
  <path class="fil3 str2" d="M1188 3113c-106,40 -154,8 -144,-97"/>
  <path class="fil3 str2" d="M1103 3030c-157,-55 -146,-104 35,-148"/>
  <path class="fil3 str2" d="M1010 2930c-66,-99 -28,-150 115,-153"/>
  <path class="fil3 str2" d="M997 2809c-54,-152 0,-200 163,-145"/>
  <path class="fil3 str2" d="M1002 2655c-18,-186 53,-224 213,-113"/>
  <path class="fil3 str2" d="M1045 2485c60,-179 153,-212 280,-96"/>
  <path class="fil3 str2" d="M1152 2330c117,-164 213,-171 288,-21"/>
  <path class="fil3 str2" d="M1311 2202c93,-159 184,-160 273,-5"/>
  <path class="fil3 str2" d="M1471 2075c67,-140 156,-134 268,18"/>
  <path class="fil3 str2" d="M1579 1974c140,-168 243,-157 309,34"/>
  <path class="fil3 str2" d="M1753 1856c165,-110 270,-87 315,71"/>
  <path class="fil3 str2" d="M1959 1792c121,-116 211,-92 269,72"/>
  <path class="fil3 str2" d="M2112 1722c206,-101 296,-62 270,117"/>
  <path class="fil3 str3" d="M1446 1372c216,21 309,7 278,-43"/>
  <path class="fil3 str3" d="M1022 779c144,41 261,57 350,48"/>
  <path class="fil3 str0" d="M2357 1690c-199,-500 -499,-859 -902,-1076"/>
  <path class="fil3 str0" d="M1505 682c-102,-230 -196,-457 -285,-681"/>
  <path class="fil3 str0" d="M1220 1c-79,253 -42,482 111,687"/>
  <path class="fil3 str0" d="M2112 1722c-569,-589 -846,-985 -830,-1189"/>
  <path class="fil3 str0" d="M1396 858c145,90 235,108 269,53"/>
  <path class="fil3 str0" d="M1574 1114c125,78 236,91 332,38"/>
  <path class="fil3 str0" d="M960 384c345,582 688,1011 1028,1287"/>
  <path class="fil3 str0" d="M2331 1658c-507,-527 -808,-865 -904,-1013"/>
  <path class="fil3 str0" d="M1182 1001c182,176 298,253 347,232"/>
  <path class="fil3 str0" d="M1811 1514c-174,-81 -333,-175 -478,-283"/>
  <path class="fil3 str0" d="M973 528c61,111 123,168 184,172"/>
  <path class="fil3 str0" d="M953 433c59,103 94,152 106,147"/>
  <path class="fil3 str0" d="M1122 519c69,113 95,195 78,244"/>
  <path class="fil3 str0" d="M1245 110c16,209 58,365 123,467"/>
  <path class="fil3 str0" d="M1914 1832c-757,-448 -1171,-739 -1240,-872"/>
  <path class="fil3 str0" d="M1955 1773c-629,-456 -1085,-840 -1368,-1152"/>
  <path class="fil3 str0" d="M778 817c-82,-22 -146,-51 -192,-88"/>
  <path class="fil3 str0" d="M960 961c-25,-124 -58,-202 -99,-233"/>
  <path class="fil3 str0" d="M1115 1097c-55,-188 -102,-307 -143,-356"/>
  <path class="fil3 str0" d="M1195 1230c-246,-95 -435,-211 -566,-349"/>
  <path class="fil3 str0" d="M1378 1360c-95,-6 -162,-27 -202,-62"/>
  <path class="fil3 str0" d="M1656 1598c-133,-36 -210,-86 -229,-148"/>
  <path class="fil3 str0" d="M188 1152c796,416 1316,657 1560,722"/>
  <path class="fil3 str0" d="M575 959c44,154 65,296 62,424"/>
  <path class="fil3 str0" d="M443 1001c121,80 178,203 171,370"/>
  <path class="fil3 str0" d="M356 1041c93,69 158,169 195,298"/>
  <path class="fil3 str0" d="M281 1060c86,73 141,148 165,226"/>
  <path class="fil3 str0" d="M504 1315c-125,19 -228,-13 -309,-94"/>
  <path class="fil3 str0" d="M968 1513c-25,-115 -75,-190 -151,-224"/>
  <path class="fil3 str0" d="M1275 1690c0,-54 -52,-134 -157,-237"/>
  <path class="fil3 str0" d="M1456 1769c10,-65 -22,-116 -97,-152"/>
  <path class="fil3 str0" d="M1600 1826c-3,-40 -34,-83 -92,-129"/>
  <path class="fil3 str0" d="M1583 1969c-787,-261 -1197,-442 -1232,-542"/>
  <path class="fil3 str0" d="M1402 2090c-552,-245 -927,-367 -1124,-365"/>
  <path class="fil3 str0" d="M1316 2072c-100,37 -214,51 -344,40"/>
  <path class="fil3 str0" d="M839 2062c-227,-180 -420,-294 -577,-341"/>
  <path class="fil3 str0" d="M811 2140c-267,-186 -501,-308 -703,-366"/>
  <path class="fil3 str0" d="M242 1988c-18,-101 -70,-164 -156,-189 94,-36 211,37 351,217"/>
  <path class="fil3 str0" d="M492 1524c141,177 211,266 211,266"/>
  <path class="fil3 str0" d="M965 1751c118,127 177,191 177,191"/>
  <path class="fil3 str0" d="M672 1512c442,305 662,458 662,458"/>
 </g>
</svg>
