<?xml version="1.0" encoding="UTF-8"?>
<!DOCTYPE svg PUBLIC "-//W3C//DTD SVG 1.1//EN" "http://www.w3.org/Graphics/SVG/1.1/DTD/svg11.dtd">
<!-- Creator: CorelDRAW X8 -->
<svg xmlns="http://www.w3.org/2000/svg" xml:space="preserve" width="136.584mm" height="175.065mm" version="1.1" style="shape-rendering:geometricPrecision; text-rendering:geometricPrecision; image-rendering:optimizeQuality; fill-rule:evenodd; clip-rule:evenodd"
viewBox="0 0 1412 1809"
 xmlns:xlink="http://www.w3.org/1999/xlink">
 <defs>
  <style type="text/css">
   <![CDATA[
    .str1 {stroke:black;stroke-width:0.874439}
    .str0 {stroke:black;stroke-width:0.875473}
    .str2 {stroke:black;stroke-width:0.787615}
    .fil6 {fill:none}
    .fil7 {fill:#003399}
    .fil0 {fill:#0F6341}
    .fil5 {fill:#543400}
    .fil1 {fill:#5E0000}
    .fil4 {fill:#6E4400}
    .fil2 {fill:#F59B33}
    .fil3 {fill:#F7EFE1}
   ]]>
  </style>
 </defs>
 <g id="Camada_x0020_1">
  <metadata id="CorelCorpID_0Corel-Layer"/>
  <path class="fil0" d="M989 1267c130,116 324,202 218,371l-15 -6c99,-159 -120,-205 -200,-328l-3 -37z"/>
  <path class="fil1" d="M701 1436l9 -10c8,119 119,190 273,299l-18 24c-88,-104 -317,-195 -264,-313z"/>
  <path class="fil2" d="M765 1175l37 39c-72,98 -78,160 -101,236 -46,154 -112,240 -230,323l-4 -62c196,-110 176,-390 298,-536z"/>
  <path class="fil3" d="M133 122c104,-1 203,16 287,75l50 12c-58,-58 -95,-125 -128,-193l235 184c249,77 470,178 651,311l-271 534 -26 131c39,3 63,88 80,209l-10 -16c10,63 30,127 29,188l-10 67c-51,-23 -91,-71 -123,-140l-70 104 -56 -158 1 -64 -29 27 -1 -35 38 -45 -7 -37 -70 1 -63 130 -102 116c-40,8 -78,6 -115,-2l7 -108c-32,11 -61,38 -87,79l33 -190 -103 66 64 -122c-29,47 -68,76 -115,93l14 -124c-45,-7 -86,0 -125,23l23 -92 17 -73 -41 -12 -91 1 80 -95 -43 1 74 -62 -129 -24c63,-62 134,-111 226,-129l4 -15c-42,3 -83,5 -103,-13l-98 15c35,-46 79,-78 137,-88l17 -35 -30 -1 26 -43 -45 2c-71,17 -99,-50 -104,-159 55,-27 111,-40 170,-34l-105 -111 197 12 -160 -161z"/>
  <path class="fil4" d="M1071 898c97,-73 199,-131 321,-117 21,23 25,57 2,111 -14,-118 -168,-35 -336,66l13 -60z"/>
  <path class="fil4" d="M832 1078c-73,-118 -93,-240 -32,-319 89,-118 336,-251 448,-260 9,10 3,52 21,70 24,25 56,39 57,60 -448,64 -501,348 -407,381l-87 68z"/>
  <ellipse class="fil5" cx="973" cy="926" rx="92" ry="105"/>
  <path class="fil5" d="M926 837c94,-116 222,-193 400,-208l64 145c-141,4 -247,49 -326,127l-138 -64z"/>
  <path class="fil6 str0" d="M957 1038c69,-30 102,-57 101,-80 203,-131 315,-157 336,-77 24,-45 23,-79 -2,-100 -27,-103 -70,-175 -130,-217 10,-28 -6,-45 -48,-50"/>
  <path class="fil6 str1" d="M666 1358c-14,153 -80,271 -199,353 6,14 7,34 4,62"/>
  <path class="fil6 str0" d="M1058 958c24,-89 -17,-130 -121,-124 -86,72 -80,140 20,204"/>
  <path class="fil6 str0" d="M959 834c140,-126 270,-180 392,-163"/>
  <path class="fil6 str0" d="M897 864c104,-143 247,-221 429,-235"/>
  <path class="fil6 str1" d="M1065 904c88,-90 197,-131 327,-123"/>
  <path class="fil6 str1" d="M1381 854c19,-31 14,-56 -14,-74"/>
  <path class="fil6 str1" d="M1361 841c11,-29 2,-49 -25,-60"/>
  <path class="fil6 str1" d="M1304 784c22,24 25,42 11,53"/>
  <path class="fil6 str1" d="M1264 791c19,13 26,30 20,52"/>
  <path class="fil6 str1" d="M1236 803c10,12 14,30 10,53"/>
  <path class="fil6 str1" d="M1201 811c11,15 14,35 9,61"/>
  <path class="fil6 str1" d="M1161 833c6,23 6,43 0,60"/>
  <path class="fil6 str1" d="M1116 859c8,18 2,41 -19,71"/>
  <path class="fil6 str1" d="M957 1038c0,45 -9,77 -26,95"/>
  <path class="fil6 str1" d="M912 1017c-42,102 -38,178 12,229 -4,-41 -1,-79 10,-116"/>
  <path class="fil6 str1" d="M1272 635c-17,-28 -33,-45 -48,-48"/>
  <path class="fil6 str1" d="M1175 597c21,18 31,35 29,53"/>
  <path class="fil6 str1" d="M1119 614c23,11 35,28 36,51"/>
  <path class="fil6 str1" d="M1079 628c21,19 32,37 33,55"/>
  <path class="fil6 str1" d="M1034 647c25,13 38,32 41,55"/>
  <path class="fil6 str1" d="M999 672c21,16 33,34 38,54"/>
  <path class="fil6 str1" d="M964 696c14,20 28,38 42,53"/>
  <path class="fil6 str1" d="M924 723c21,32 38,49 50,54"/>
  <path class="fil6 str1" d="M883 752c22,27 44,44 66,50"/>
  <path class="fil6 str1" d="M849 812c22,11 47,16 75,17"/>
  <path class="fil6 str1" d="M825 867c22,-1 46,-2 72,-3"/>
  <path class="fil6 str1" d="M820 916c25,2 45,0 60,-6"/>
  <path class="fil6 str1" d="M808 965c36,6 59,1 71,-16"/>
  <path class="fil6 str1" d="M1011 1385c-19,-147 -48,-216 -87,-208"/>
  <path class="fil6 str1" d="M1028 1571c13,-75 -2,-138 -45,-188"/>
  <path class="fil6 str1" d="M938 1349c8,23 24,44 50,63"/>
  <path class="fil6 str1" d="M967 1281c20,53 31,95 34,126"/>
  <path class="fil6 str1" d="M882 1287c10,37 22,59 38,66 -15,-36 -13,-72 4,-107"/>
  <path class="fil6 str1" d="M1012 1499c-8,-55 -32,-90 -70,-106 -22,62 -24,108 -9,138"/>
  <path class="fil6 str1" d="M1020 1624c-74,-42 -115,-99 -123,-170"/>
  <path class="fil6 str1" d="M1013 1624c9,-49 10,-86 5,-111"/>
  <path class="fil6 str1" d="M858 1297c17,46 41,82 72,107"/>
  <path class="fil6 str1" d="M792 1344c-24,33 -32,60 -25,83 43,-51 70,-89 81,-114"/>
  <path class="fil6 str1" d="M827 1593c-43,-98 -60,-156 -52,-176"/>
  <path class="fil6 str1" d="M825 1590c47,-53 72,-94 77,-122"/>
  <path class="fil6 str1" d="M909 1385c5,41 2,71 -9,91"/>
  <path class="fil6 str1" d="M827 1265c-56,51 -84,91 -83,121 20,-25 36,-39 48,-42"/>
  <path class="fil6 str1" d="M841 1165c-58,61 -78,112 -59,152"/>
  <path class="fil6 str1" d="M827 1593c15,-225 35,-385 58,-480"/>
  <path class="fil6 str1" d="M884 1513c3,-49 -9,-91 -35,-125 -24,8 -45,44 -61,107"/>
  <path class="fil6 str1" d="M1009 1612c-33,-53 -48,-108 -43,-165 -29,36 -31,80 -4,134"/>
  <path class="fil6 str1" d="M1020 1568c-15,-64 -33,-104 -54,-121"/>
  <path class="fil6 str1" d="M865 1105c-54,38 -78,78 -70,120"/>
  <path class="fil6 str1" d="M870 1041c-63,55 -87,102 -72,141"/>
  <path class="fil6 str1" d="M531 1524c70,-50 104,-98 103,-145"/>
  <path class="fil6 str1" d="M635 1419c27,-65 50,-112 68,-142"/>
  <path class="fil6 str1" d="M666 1358c61,-59 85,-112 72,-161"/>
  <path class="fil6 str1" d="M423 1521c91,-74 135,-128 134,-161"/>
  <path class="fil6 str1" d="M539 1406c63,-44 95,-96 94,-156"/>
  <path class="fil6 str1" d="M702 1141c-18,80 -43,131 -75,152"/>
  <path class="fil6 str1" d="M803 1039c-49,72 -85,116 -109,132"/>
  <path class="fil6 str1" d="M696 1191c0,28 3,56 7,86"/>
  <path class="fil6 str1" d="M423 1521c-14,-94 28,-159 126,-196 74,-81 152,-258 236,-300"/>
  <path class="fil6 str1" d="M510 1422c20,-36 29,-68 26,-97"/>
  <path class="fil6 str1" d="M454 1490c30,-46 49,-95 55,-147"/>
  <path class="fil6 str1" d="M431 1502c27,-69 52,-119 77,-149"/>
  <path class="fil6 str1" d="M486 1268c-105,7 -152,78 -140,213 37,-42 66,-67 85,-74"/>
  <path class="fil6 str1" d="M476 1354c8,-39 10,-69 8,-91"/>
  <path class="fil6 str1" d="M573 1172c-14,71 -33,117 -56,139"/>
  <path class="fil6 str1" d="M483 1309c34,14 46,2 37,-36"/>
  <path class="fil6 str1" d="M588 1161c-11,26 -12,48 -2,66 19,-42 40,-81 62,-118"/>
  <path class="fil6 str1" d="M734 1025c-45,43 -74,72 -88,87"/>
  <path class="fil6 str1" d="M484 1263c54,-79 150,-181 287,-305"/>
  <path class="fil6 str1" d="M529 1160c-55,24 -84,46 -86,66 -14,0 -37,30 -70,89"/>
  <path class="fil6 str1" d="M471 1773c139,-89 218,-216 237,-383 30,-66 54,-109 70,-127"/>
  <line class="fil6 str1" x1="479" y1="1703" x2="539" y2= "1722" />
  <line class="fil6 str1" x1="518" y1="1676" x2="499" y2= "1754" />
  <line class="fil6 str1" x1="516" y1="1684" x2="579" y2= "1683" />
  <line class="fil6 str1" x1="524" y1="1665" x2="588" y2= "1669" />
  <line class="fil6 str1" x1="563" y1="1629" x2="555" y2= "1707" />
  <line class="fil6 str1" x1="567" y1="1619" x2="627" y2= "1622" />
  <line class="fil6 str1" x1="582" y1="1599" x2="636" y2= "1597" />
  <line class="fil6 str1" x1="614" y1="1547" x2="668" y2= "1546" />
  <line class="fil6 str1" x1="641" y1="1502" x2="646" y2= "1591" />
  <line class="fil6 str1" x1="643" y1="1475" x2="695" y2= "1463" />
  <line class="fil6 str1" x1="654" y1="1435" x2="675" y2= "1507" />
  <line class="fil6 str1" x1="658" y1="1419" x2="707" y2= "1399" />
  <line class="fil6 str1" x1="666" y1="1386" x2="691" y2= "1452" />
  <line class="fil6 str1" x1="679" y1="1350" x2="702" y2= "1427" />
  <line class="fil6 str1" x1="697" y1="1330" x2="715" y2= "1361" />
  <line class="fil6 str1" x1="685" y1="1338" x2="727" y2= "1335" />
  <line class="fil6 str1" x1="716" y1="1298" x2="722" y2= "1349" />
  <line class="fil6 str1" x1="744" y1="1238" x2="789" y2= "1237" />
  <line class="fil6 str1" x1="750" y1="1222" x2="788" y2= "1219" />
  <line class="fil6 str1" x1="781" y1="1178" x2="748" y2= "1293" />
  <line class="fil6 str1" x1="732" y1="1276" x2="759" y2= "1280" />
  <line class="fil6 str1" x1="1132" y1="736" x2="1105" y2= "843" />
  <polygon class="fil6 str1" points="1132,736 1060,782 1101,848 1172,798 "/>
  <line class="fil6 str1" x1="1033" y1="780" x2="1090" y2= "871" />
  <line class="fil6 str1" x1="1145" y1="715" x2="1197" y2= "805" />
  <line class="fil6 str1" x1="1196" y1="692" x2="1339" y2= "766" />
  <line class="fil6 str1" x1="1300" y1="672" x2="1245" y2= "788" />
  <line class="fil6 str1" x1="1187" y1="692" x2="1241" y2= "797" />
  <line class="fil6 str1" x1="1306" y1="675" x2="1343" y2= "777" />
  <line class="fil6 str1" x1="1247" y1="782" x2="1339" y2= "766" />
  <path class="fil6 str1" d="M1311 668c35,51 54,89 56,112"/>
  <path class="fil6 str1" d="M858 1042c-42,-84 -43,-166 -1,-248 137,-132 272,-209 405,-230"/>
  <path class="fil6 str1" d="M742 951c-91,82 -146,122 -165,123 -13,26 -29,55 -48,86"/>
  <path class="fil6 str1" d="M420 1013c-50,73 -88,122 -112,148"/>
  <path class="fil6 str1" d="M293 1085c-15,79 -36,121 -63,127 -51,-3 -93,8 -126,30"/>
  <path class="fil6 str1" d="M303 1124c-4,36 -15,58 -34,66"/>
  <path class="fil6 str1" d="M224 1195c28,-45 47,-81 58,-110 -25,35 -68,80 -129,135"/>
  <path class="fil6 str1" d="M125 1154c39,-47 94,-78 167,-93"/>
  <path class="fil6 str1" d="M271 1044c-74,25 -119,53 -132,82"/>
  <path class="fil6 str1" d="M254 1038c-41,-3 -76,10 -108,38"/>
  <path class="fil6 str1" d="M292 1061c153,-123 251,-188 293,-195"/>
  <path class="fil6 str1" d="M450 941c-6,49 -16,88 -32,118"/>
  <path class="fil6 str1" d="M458 935c-74,1 -161,29 -260,83 40,-15 98,-22 174,-20"/>
  <path class="fil6 str1" d="M104 1242c21,-55 65,-102 132,-142"/>
  <path class="fil6 str1" d="M418 1059c72,-48 103,-101 96,-160"/>
  <path class="fil6 str1" d="M473 1049c90,-94 140,-155 151,-182"/>
  <path class="fil6 str1" d="M484 1037c32,-55 42,-95 31,-122"/>
  <path class="fil6 str1" d="M408 1144c136,-123 237,-211 302,-266"/>
  <path class="fil6 str1" d="M257 1191c-23,30 -34,79 -35,148 82,-28 125,-77 129,-146"/>
  <path class="fil6 str1" d="M319 1278c-5,30 -21,60 -46,90 76,-30 121,-83 135,-157 109,-84 161,-143 155,-178"/>
  <path class="fil6 str1" d="M562 1050c76,-53 120,-91 132,-116"/>
  <path class="fil6 str1" d="M581 930c79,-37 124,-77 136,-120"/>
  <path class="fil6 str1" d="M187 1016c-43,-10 -81,-8 -115,4"/>
  <path class="fil6 str1" d="M112 958c-55,39 -84,70 -85,92 119,-81 215,-125 288,-132"/>
  <path class="fil6 str1" d="M112 958c-21,3 -44,11 -69,24 18,-32 47,-57 87,-76"/>
  <path class="fil6 str1" d="M180 1026c135,-128 316,-219 542,-274"/>
  <path class="fil6 str1" d="M859 693c-163,-10 -366,32 -608,125"/>
  <path class="fil6 str1" d="M254 775c-46,-40 -130,-5 -253,107 71,15 136,22 193,21"/>
  <path class="fil6 str1" d="M99 804c50,-1 101,4 152,14 -24,53 -54,81 -88,85"/>
  <path class="fil6 str1" d="M75 895c92,-27 153,-53 181,-79 -87,3 -163,18 -225,47"/>
  <path class="fil6 str1" d="M348 806c-16,61 -68,94 -154,97"/>
  <path class="fil6 str1" d="M482 783c-71,38 -132,77 -186,118"/>
  <path class="fil6 str1" d="M494 764c-7,14 -25,35 -53,65 64,-12 101,-37 114,-74"/>
  <path class="fil6 str1" d="M349 769c-56,-26 -100,-30 -134,-10"/>
  <path class="fil6 str1" d="M10 757c53,-64 105,-99 157,-105"/>
  <path class="fil6 str1" d="M40 738c154,-19 245,-44 275,-76"/>
  <path class="fil6 str1" d="M125 736c48,10 81,7 97,-9"/>
  <path class="fil6 str1" d="M191 740c56,3 90,-18 104,-63"/>
  <path class="fil6 str1" d="M283 748c69,-36 107,-64 113,-86"/>
  <path class="fil6 str1" d="M371 702c37,2 62,-11 74,-38"/>
  <path class="fil6 str1" d="M468 699c76,-11 117,-27 124,-49"/>
  <path class="fil6 str1" d="M523 653c-32,45 -69,59 -112,43"/>
  <path class="fil6 str1" d="M559 697c85,-25 139,-48 162,-68"/>
  <path class="fil6 str1" d="M659 680c43,-2 132,-9 265,-21"/>
  <path class="fil6 str1" d="M65 581c422,-41 731,-36 924,15"/>
  <path class="fil6 str1" d="M181 571c2,17 -14,32 -47,45 132,0 214,-17 246,-53"/>
  <path class="fil6 str1" d="M196 622c97,25 164,14 199,-33"/>
  <path class="fil6 str1" d="M467 577c-39,42 -87,61 -144,55"/>
  <path class="fil6 str1" d="M432 628c52,-13 85,-28 99,-45"/>
  <path class="fil6 str1" d="M467 580c-13,28 -25,45 -36,51"/>
  <path class="fil6 str1" d="M909 622c-111,11 -197,11 -258,0 40,-12 65,-29 74,-49"/>
  <path class="fil6 str1" d="M697 602c-109,26 -178,36 -208,28 37,-12 51,-28 42,-47"/>
  <path class="fil6 str1" d="M1023 578c-265,-76 -509,-112 -732,-108"/>
  <path class="fil6 str1" d="M291 470c-44,-39 -111,-108 -202,-206"/>
  <path class="fil6 str1" d="M334 461c-68,-46 -169,-61 -303,-45 95,89 182,107 260,54"/>
  <path class="fil6 str1" d="M204 385c-58,-11 -115,0 -173,31"/>
  <path class="fil6 str1" d="M1022 568c-254,-100 -472,-171 -652,-213"/>
  <path class="fil6 str1" d="M386 360c-60,-60 -133,-98 -218,-115"/>
  <path class="fil6 str1" d="M96 271c85,-5 152,2 200,20"/>
  <path class="fil6 str1" d="M386 360c-100,4 -180,-7 -239,-34"/>
  <path class="fil6 str1" d="M577 200c-76,-24 -151,-75 -224,-153 109,219 382,378 818,476"/>
  <path class="fil6 str1" d="M1228 511c-79,-85 -298,-189 -657,-313"/>
  <path class="fil6 str1" d="M571 198c-44,-50 -128,-116 -253,-198"/>
  <path class="fil6 str1" d="M482 251c-68,-70 -148,-112 -241,-128"/>
  <path class="fil6 str1" d="M1123 550c-301,-86 -538,-186 -712,-300"/>
  <path class="fil6 str1" d="M420 256c-65,-41 -159,-81 -280,-119 45,41 101,92 168,153"/>
  <path class="fil6 str1" d="M411 250c-97,-98 -192,-138 -287,-122"/>
  <path class="fil6 str1" d="M637 323c36,4 92,2 168,-5"/>
  <path class="fil6 str1" d="M701 357c30,-9 56,-21 79,-37"/>
  <path class="fil6 str1" d="M311 418c87,13 151,11 194,-6"/>
  <path class="fil6 str1" d="M429 443c95,-6 145,-16 151,-31"/>
  <path class="fil6 str1" d="M487 467c46,-16 80,-33 102,-52"/>
  <path class="fil6 str1" d="M269 546c104,-27 162,-51 174,-73"/>
  <path class="fil6 str1" d="M378 549c67,-19 111,-38 133,-56"/>
  <path class="fil6 str1" d="M494 549c32,-17 49,-33 52,-47"/>
  <path class="fil6 str1" d="M73 580c155,-45 235,-81 242,-110"/>
  <path class="fil6 str1" d="M807 1020c-15,34 1,38 47,12"/>
  <path class="fil6 str1" d="M841 1068c-20,-2 -26,-10 -20,-21"/>
  <path class="fil6 str1" d="M840 1014c-38,14 -55,3 -51,-34"/>
  <path class="fil6 str1" d="M810 985c-56,-20 -52,-37 12,-53"/>
  <path class="fil6 str1" d="M777 949c-24,-35 -10,-53 40,-54"/>
  <path class="fil6 str1" d="M772 906c-19,-53 0,-70 58,-51"/>
  <path class="fil6 str1" d="M774 852c-6,-66 19,-79 75,-40"/>
  <path class="fil6 str1" d="M789 792c21,-63 54,-75 99,-34"/>
  <path class="fil6 str1" d="M827 737c41,-58 75,-60 102,-7"/>
  <path class="fil6 str1" d="M883 692c33,-56 65,-57 97,-2"/>
  <path class="fil6 str1" d="M940 647c23,-49 55,-47 94,7"/>
  <path class="fil6 str1" d="M978 612c49,-60 86,-56 109,12"/>
  <path class="fil6 str1" d="M1039 570c59,-39 96,-31 112,25"/>
  <path class="fil6 str1" d="M1112 547c43,-41 75,-32 95,26"/>
  <path class="fil6 str1" d="M1166 522c73,-35 105,-21 96,42"/>
  <path class="fil6 str1" d="M715 1374c-35,184 118,224 267,355"/>
  <path class="fil6 str1" d="M969 1756c-56,-98 -249,-147 -282,-291"/>
  <ellipse class="fil5 str1" cx="983" cy="1746" rx="18" ry="23"/>
  <ellipse class="fil5 str1" cx="1001" cy="1780" rx="14" ry="12"/>
  <ellipse class="fil6 str1" cx="1018" cy="1801" rx="9" ry="8"/>
  <path class="fil6 str1" d="M1010 1333c76,116 251,165 246,273"/>
  <path class="fil6 str1" d="M989 1267c151,147 329,196 212,380"/>
  <path class="fil6 str1" d="M998 1308c157,126 275,181 194,324"/>
  <ellipse class="fil7 str1" cx="1195" cy="1648" rx="13" ry="21"/>
  <ellipse class="fil7 str1" cx="1187" cy="1680" rx="10" ry="20"/>
  <ellipse class="fil7 str1" cx="1181" cy="1713" rx="5" ry="17"/>
  <path class="fil6 str2" d="M94 574c-41,-17 -61,-70 -63,-158"/>
  <path class="fil6 str2" d="M122 560c-43,-26 -66,-67 -68,-124"/>
  <path class="fil6 str2" d="M167 551c-74,-11 -119,-54 -135,-126"/>
  <path class="fil6 str2" d="M190 539c-75,-16 -117,-46 -127,-89"/>
  <path class="fil6 str2" d="M270 509c-93,11 -156,-4 -188,-45"/>
  <path class="fil6 str2" d="M108 567c-37,-16 -58,-62 -62,-138"/>
  <path class="fil6 str2" d="M51 429c95,-17 178,-4 252,41"/>
  <path class="fil6 str2" d="M111 386c95,10 164,37 208,81"/>
  <path class="fil6 str2" d="M64 444c103,-9 186,2 249,32"/>
  <path class="fil6 str2" d="M297 488c-97,1 -170,-14 -218,-45"/>
  <path class="fil6 str2" d="M370 355c-150,-25 -230,-52 -240,-82"/>
  <path class="fil6 str2" d="M368 347c-93,-16 -148,-41 -166,-75"/>
  <path class="fil6 str2" d="M346 354c-116,-10 -195,-38 -238,-82"/>
  <path class="fil6 str2" d="M349 332c-106,-15 -165,-35 -177,-59"/>
  <path class="fil6 str2" d="M367 226c-57,-55 -132,-86 -222,-92"/>
  <path class="fil6 str2" d="M376 235c-73,-25 -139,-44 -198,-57"/>
  <path class="fil6 str2" d="M432 259c-6,-43 -59,-80 -159,-110"/>
  <path class="fil6 str2" d="M535 184c-88,-75 -142,-117 -163,-128"/>
  <path class="fil6 str2" d="M416 111c55,75 101,126 138,155"/>
  <path class="fil6 str2" d="M57 733c78,-62 133,-94 166,-97"/>
  <path class="fil6 str2" d="M91 720c62,-69 104,-103 125,-100"/>
  <path class="fil6 str2" d="M128 725c19,-35 50,-67 94,-97"/>
  <path class="fil6 str2" d="M84 732c50,-37 102,-69 153,-97"/>
  <path class="fil6 str2" d="M24 758c115,-63 188,-82 216,-58"/>
  <path class="fil6 str2" d="M10 883c88,-20 154,-32 196,-35"/>
  <path class="fil6 str2" d="M62 830c87,-15 146,-17 179,-5"/>
  <path class="fil6 str2" d="M238 830c-77,1 -146,21 -207,60"/>
  <path class="fil6 str2" d="M147 897c44,-29 68,-53 71,-73"/>
  <path class="fil6 str2" d="M245 897c39,-29 57,-49 52,-62"/>
  <path class="fil6 str2" d="M110 1061c-34,1 -64,1 -91,1"/>
  <path class="fil6 str2" d="M35 1056c64,-24 111,-34 141,-30"/>
  <path class="fil6 str2" d="M292 1061c-66,-4 -127,-2 -184,5 144,-42 220,-54 230,-38"/>
  <path class="fil6 str2" d="M111 1238c15,-112 39,-171 70,-178"/>
  <path class="fil6 str2" d="M132 1227c69,-99 122,-153 157,-160"/>
  <path class="fil6 str2" d="M199 1212c65,-76 90,-125 76,-147"/>
  <path class="fil6 str2" d="M357 1142c4,41 -39,105 -127,194 31,-101 68,-165 113,-192"/>
  <path class="fil6 str2" d="M238 1327c10,-80 29,-137 58,-171"/>
  <path class="fil6 str2" d="M257 1323c44,-84 66,-138 67,-160"/>
  <path class="fil6 str2" d="M313 1348c46,-76 63,-129 53,-158"/>
  <path class="fil6 str2" d="M371 1455c-22,-76 2,-136 73,-180"/>
  <path class="fil6 str2" d="M350 1476c29,-139 74,-204 135,-194"/>
  <path class="fil6 str2" d="M375 1440c54,-82 92,-134 114,-155"/>
  <path class="fil6 str2" d="M389 1431c23,-94 49,-146 79,-159"/>
  <path class="fil6 str2" d="M428 1522c64,9 107,4 129,-15"/>
  <path class="fil6 str2" d="M454 1521c114,-60 171,-111 171,-154"/>
  <path class="fil6 str2" d="M468 1531c59,-64 90,-111 93,-142"/>
  <path class="fil6 str2" d="M526 1522c38,-54 57,-102 55,-145"/>
  <path class="fil6 str2" d="M442 1525c49,-36 77,-68 86,-96"/>
  <path class="fil6 str2" d="M507 1527c73,-84 105,-143 94,-176"/>
  <path class="fil6 str2" d="M535 1523c53,-73 77,-134 71,-183"/>
  <path class="fil6 str2" d="M811 1544c0,-55 9,-98 25,-130"/>
  <path class="fil6 str2" d="M839 1574c32,-71 33,-132 5,-184"/>
  <path class="fil6 str2" d="M840 1423c25,38 31,77 19,117"/>
  <path class="fil6 str2" d="M796 408c50,-4 79,-13 87,-28"/>
  <path class="fil6 str2" d="M897 446c76,8 109,3 98,-15"/>
  <path class="fil6 str2" d="M574 281c56,7 105,8 146,2"/>
  <path class="fil6 str2" d="M410 364c74,12 132,16 174,13"/>
  <path class="fil6 str2" d="M585 418c84,20 136,27 157,21"/>
  <path class="fil6 str2" d="M793 482c51,15 92,20 123,17"/>
  <path class="fil6 str2" d="M607 489c70,-2 116,-4 139,-6"/>
  <path class="fil6 str2" d="M559 553c137,-5 208,-9 213,-10"/>
  <path class="fil6 str2" d="M346 901c104,-38 176,-57 215,-54"/>
  <path class="fil6 str2" d="M408 1211c57,-69 91,-116 99,-141"/>
  <path class="fil6 str2" d="M359 1098c50,-33 85,-47 105,-42"/>
  <path class="fil6 str2" d="M365 1004c0,34 -13,80 -40,137"/>
  <path class="fil6 str2" d="M1184 506c-65,-68 -124,-112 -175,-131"/>
 </g>
</svg>
