<?xml version="1.0" encoding="UTF-8"?>
<!DOCTYPE svg PUBLIC "-//W3C//DTD SVG 1.1//EN" "http://www.w3.org/Graphics/SVG/1.1/DTD/svg11.dtd">
<!-- Creator: CorelDRAW X8 -->
<svg xmlns="http://www.w3.org/2000/svg" xml:space="preserve" width="110.832mm" height="153.617mm" version="1.1" style="shape-rendering:geometricPrecision; text-rendering:geometricPrecision; image-rendering:optimizeQuality; fill-rule:evenodd; clip-rule:evenodd"
viewBox="0 0 4117 5706"
 xmlns:xlink="http://www.w3.org/1999/xlink">
 <defs>
  <style type="text/css">
   <![CDATA[
    .str2 {stroke:black;stroke-width:3.1422}
    .str1 {stroke:black;stroke-width:3.14591}
    .str0 {stroke:black;stroke-width:7.42837}
    .str3 {stroke:black;stroke-width:2.83021}
    .fil1 {fill:none}
    .fil5 {fill:#003399}
    .fil4 {fill:#0F6341}
    .fil3 {fill:#543400}
    .fil2 {fill:#6E4400}
    .fil0 {fill:#F7EFE1}
   ]]>
  </style>
 </defs>
 <g id="Camada_x0020_1">
  <metadata id="CorelCorpID_0Corel-Layer"/>
  <path class="fil0 str0" d="M1850 960l-106 -497 466 392c-189,-347 -211,-608 -121,-812l344 755c527,359 933,779 1086,1329l-316 58 -748 2005 -191 -4 121 571c52,213 9,395 -68,564 -167,-81 -304,-273 -407,-595 -34,-194 -22,-391 94,-597l-1710 462 44 -353 -336 -219 260 -191 -61 -222 75 -106 -98 -141 298 -398c52,-70 -200,-199 -137,-220 95,-31 427,73 448,14 12,-33 -190,-282 -230,-306 94,-181 201,-307 348,-258l93 -378c-162,-101 -212,-230 -206,-372 179,-170 385,-241 616,-222 -95,-144 -130,-287 -110,-431l552 172z"/>
  <path class="fil1 str0" d="M787 2755c1102,205 1728,292 1879,262"/>
  <path class="fil1 str0" d="M339 2741c1240,383 1968,543 2183,479"/>
  <path class="fil1 str0" d="M178 3359c1564,66 2289,24 2175,-127"/>
  <path class="fil2" d="M2891 3537c350,-261 716,-470 1155,-421 75,81 90,205 7,401 -49,-425 -605,-128 -1206,234l44 -214z"/>
  <path class="fil2" d="M2035 4184c-265,-426 -336,-863 -118,-1148 323,-421 1210,-902 1613,-932 31,34 10,185 74,251 87,89 201,139 206,216 -1613,229 -1801,1249 -1463,1366l-312 247z"/>
  <ellipse class="fil3" cx="2540" cy="3639" rx="329" ry="377"/>
  <path class="fil3" d="M2370 3316c340,-416 797,-692 1440,-745l230 522c-507,11 -890,173 -1172,455l-498 -232z"/>
  <path class="fil1 str1" d="M2482 4038c247,-107 368,-203 365,-287 729,-469 1131,-562 1206,-277 85,-161 83,-281 -7,-358 -96,-370 -252,-630 -468,-780 35,-101 -22,-162 -170,-181"/>
  <path class="fil1 str1" d="M2847 3751c84,-317 -61,-465 -436,-443 -311,257 -288,501 71,730"/>
  <path class="fil1 str1" d="M2491 3306c501,-451 970,-647 1409,-586"/>
  <path class="fil1 str1" d="M2268 3414c374,-514 888,-795 1542,-843"/>
  <path class="fil1 str2" d="M2869 3559c317,-323 709,-470 1177,-443"/>
  <path class="fil1 str2" d="M4005 3380c68,-112 51,-201 -51,-267"/>
  <path class="fil1 str2" d="M3933 3330c39,-103 10,-175 -89,-215"/>
  <path class="fil1 str2" d="M3731 3125c76,89 89,152 39,191"/>
  <path class="fil1 str2" d="M3587 3151c69,46 92,109 70,188"/>
  <path class="fil1 str2" d="M3486 3194c36,44 48,108 36,191"/>
  <path class="fil1 str2" d="M3357 3223c43,53 53,126 33,219"/>
  <path class="fil1 str2" d="M3216 3302c22,85 22,157 -1,218"/>
  <path class="fil1 str2" d="M3053 3398c31,62 8,147 -69,255"/>
  <path class="fil1 str2" d="M2482 4038c-1,163 -32,277 -92,344"/>
  <path class="fil1 str2" d="M3614 2593c-61,-103 -118,-161 -171,-174"/>
  <path class="fil1 str2" d="M3266 2455c76,63 110,126 102,190"/>
  <path class="fil1 str2" d="M3064 2515c82,40 125,101 129,186"/>
  <path class="fil1 str2" d="M2922 2565c75,69 114,135 117,200"/>
  <path class="fil1 str2" d="M2759 2636c88,46 137,112 147,198"/>
  <path class="fil1 str2" d="M2635 2724c72,59 117,124 134,196"/>
  <path class="fil1 str2" d="M2507 2810c49,73 100,136 152,191"/>
  <path class="fil1 str2" d="M2365 2909c75,113 134,177 179,192"/>
  <path class="fil1 str2" d="M2216 3012c79,97 158,157 236,179"/>
  <path class="fil1 str2" d="M2096 3228c78,38 168,58 269,61"/>
  <path class="fil1 str2" d="M2007 3427c80,-6 167,-10 261,-13"/>
  <path class="fil1 str2" d="M1989 3600c91,9 163,2 216,-20"/>
  <path class="fil1 str2" d="M1947 3778c129,22 214,3 254,-59"/>
  <path class="fil1 str2" d="M2168 4052c-225,198 -311,367 -257,507"/>
  <line class="fil1 str2" x1="3113" y1="2953" x2="3015" y2= "3338" />
  <polygon class="fil1 str2" points="3113,2953 2854,3119 3001,3355 3256,3176 "/>
  <line class="fil1 str2" x1="2756" y1="3112" x2="2960" y2= "3440" />
  <line class="fil1 str2" x1="3159" y1="2880" x2="3345" y2= "3201" />
  <line class="fil1 str2" x1="3340" y1="2797" x2="3856" y2= "3063" />
  <line class="fil1 str2" x1="3714" y1="2726" x2="3517" y2= "3141" />
  <line class="fil1 str2" x1="3308" y1="2797" x2="3502" y2= "3173" />
  <line class="fil1 str2" x1="3737" y1="2736" x2="3868" y2= "3102" />
  <line class="fil1 str2" x1="3526" y1="3121" x2="3856" y2= "3063" />
  <path class="fil1 str2" d="M3756 2710c125,185 191,319 198,403"/>
  <path class="fil1 str2" d="M2128 4054c-153,-301 -156,-598 -7,-890 494,-474 980,-750 1457,-828"/>
  <path class="fil1 str2" d="M1942 3975c-53,121 4,135 169,43"/>
  <path class="fil1 str2" d="M2067 4149c-72,-10 -96,-36 -72,-78"/>
  <path class="fil1 str2" d="M2061 3954c-135,51 -196,9 -183,-124"/>
  <path class="fil1 str2" d="M1953 3848c-200,-69 -185,-132 44,-188"/>
  <path class="fil1 str2" d="M1835 3721c-84,-126 -36,-191 146,-194"/>
  <path class="fil1 str2" d="M1819 3567c-69,-192 0,-253 206,-184"/>
  <path class="fil1 str2" d="M1824 3372c-23,-237 68,-285 272,-144"/>
  <path class="fil1 str2" d="M1879 3156c77,-228 195,-269 356,-122"/>
  <path class="fil1 str2" d="M2015 2959c149,-208 271,-217 366,-27"/>
  <path class="fil1 str2" d="M2217 2796c118,-201 234,-203 347,-6"/>
  <path class="fil1 str2" d="M2421 2635c84,-178 197,-170 339,23"/>
  <path class="fil1 str2" d="M2557 2507c178,-214 309,-200 393,43"/>
  <path class="fil1 str2" d="M2778 2357c210,-140 343,-110 400,90"/>
  <path class="fil1 str2" d="M3040 2275c154,-146 268,-116 342,92"/>
  <path class="fil1 str2" d="M3235 2187c262,-128 376,-79 343,149"/>
  <path class="fil1 str3" d="M2389 1743c274,26 392,8 353,-55"/>
  <path class="fil1 str3" d="M1850 989c184,52 332,73 444,62"/>
  <path class="fil1 str0" d="M3545 2147c-252,-636 -634,-1092 -1145,-1367"/>
  <path class="fil1 str0" d="M2463 866c-128,-292 -249,-581 -362,-865"/>
  <path class="fil1 str0" d="M2101 1c-100,322 -53,613 142,873"/>
  <path class="fil1 str0" d="M3235 2187c-724,-748 -1075,-1251 -1055,-1510"/>
  <path class="fil1 str0" d="M2325 1089c184,115 298,138 342,68"/>
  <path class="fil1 str0" d="M2551 1415c159,99 299,115 422,48"/>
  <path class="fil1 str0" d="M1772 487c438,739 873,1284 1305,1636"/>
  <path class="fil1 str0" d="M3513 2105c-644,-669 -1027,-1098 -1148,-1286"/>
  <path class="fil1 str0" d="M2054 1271c231,223 378,322 440,295"/>
  <path class="fil1 str0" d="M2853 1923c-222,-103 -424,-223 -607,-359"/>
  <path class="fil1 str0" d="M1788 671c78,140 156,213 234,218"/>
  <path class="fil1 str0" d="M1762 550c75,131 120,193 135,186"/>
  <path class="fil1 str0" d="M1977 659c88,144 121,248 99,311"/>
  <path class="fil1 str0" d="M2133 139c21,267 73,464 157,594"/>
  <path class="fil1 str0" d="M2983 2327c-962,-570 -1487,-939 -1575,-1108"/>
  <path class="fil1 str0" d="M3035 2252c-798,-579 -1378,-1067 -1737,-1464"/>
  <path class="fil1 str0" d="M1540 1038c-104,-28 -185,-65 -244,-112"/>
  <path class="fil1 str0" d="M1771 1220c-32,-157 -74,-256 -126,-295"/>
  <path class="fil1 str0" d="M1968 1393c-70,-239 -130,-390 -181,-452"/>
  <path class="fil1 str0" d="M2070 1562c-313,-121 -552,-268 -719,-443"/>
  <path class="fil1 str0" d="M2302 1727c-120,-7 -206,-33 -256,-79"/>
  <path class="fil1 str0" d="M2656 2030c-170,-47 -267,-110 -291,-189"/>
  <path class="fil1 str0" d="M791 1464c1011,528 1671,833 1981,916"/>
  <path class="fil1 str0" d="M1283 1218c56,196 82,375 78,538"/>
  <path class="fil1 str0" d="M1115 1271c153,102 226,259 217,470"/>
  <path class="fil1 str0" d="M1005 1322c118,88 200,214 247,379"/>
  <path class="fil1 str0" d="M909 1346c109,92 179,188 209,287"/>
  <path class="fil1 str0" d="M1192 1671c-159,23 -290,-17 -392,-121"/>
  <path class="fil1 str0" d="M1781 1922c-31,-147 -95,-242 -191,-285"/>
  <path class="fil1 str0" d="M2171 2146c1,-69 -65,-169 -199,-301"/>
  <path class="fil1 str0" d="M2401 2247c13,-83 -28,-147 -123,-194"/>
  <path class="fil1 str0" d="M2584 2319c-3,-51 -42,-105 -117,-164"/>
  <path class="fil1 str0" d="M2563 2501c-1000,-332 -1521,-561 -1565,-688"/>
  <path class="fil1 str0" d="M2333 2654c-702,-311 -1178,-465 -1428,-463"/>
  <path class="fil1 str0" d="M2223 2631c-126,48 -272,65 -436,51"/>
  <path class="fil1 str0" d="M1618 2619c-289,-229 -533,-374 -733,-433"/>
  <path class="fil1 str0" d="M1582 2718c-339,-237 -636,-392 -892,-465"/>
  <path class="fil1 str0" d="M859 2525c-23,-129 -89,-209 -198,-240 119,-46 268,46 446,275"/>
  <path class="fil1 str0" d="M1178 1935c178,226 267,338 267,338"/>
  <path class="fil1 str0" d="M1777 2224c151,161 226,242 226,242"/>
  <path class="fil1 str0" d="M1406 1920c560,387 841,581 841,581"/>
  <path class="fil4" d="M2231 4038c465,420 1164,728 781,1335l-51 -22c354,-569 -431,-737 -722,-1180l-8 -133z"/>
  <path class="fil1 str2" d="M2308 4463c-68,-527 -171,-776 -311,-746"/>
  <path class="fil1 str2" d="M2371 5133c45,-271 -9,-497 -163,-677"/>
  <path class="fil1 str2" d="M2045 4335c29,82 89,158 181,227"/>
  <path class="fil1 str2" d="M2152 4089c71,190 111,342 122,455"/>
  <path class="fil1 str2" d="M2313 4874c-30,-197 -114,-325 -252,-383 -77,225 -88,391 -32,497"/>
  <path class="fil1 str2" d="M2317 5321c31,-174 36,-306 16,-397"/>
  <path class="fil1 str2" d="M1944 4465c15,148 5,256 -32,324"/>
  <path class="fil1 str2" d="M2302 5279c-120,-191 -172,-388 -156,-593 -105,129 -110,290 -15,484"/>
  <path class="fil1 str2" d="M2342 5123c-56,-231 -121,-377 -196,-437"/>
  <path class="fil1 str2" d="M2305 4277c272,416 904,591 883,982"/>
  <path class="fil1 str2" d="M2231 4038c540,529 1181,708 762,1366"/>
  <path class="fil1 str2" d="M2264 4186c562,452 985,652 697,1165"/>
  <ellipse class="fil5 str2" cx="2971" cy="5408" rx="46" ry="74"/>
  <ellipse class="fil5 str2" cx="2942" cy="5523" rx="35" ry="71"/>
  <ellipse class="fil5 str2" cx="2919" cy="5644" rx="17" ry="60"/>
  <path class="fil1 str0" d="M930 2918c263,6 412,-13 445,-57"/>
  <path class="fil1 str0" d="M457 2886c444,142 693,187 748,137"/>
  <path class="fil1 str0" d="M234 3362c433,-83 639,-156 617,-217"/>
  <path class="fil1 str0" d="M476 2961c619,156 1002,291 1150,404"/>
  <path class="fil1 str0" d="M824 3326c282,-26 413,-61 393,-106"/>
  <path class="fil1 str0" d="M505 3066c353,31 552,129 598,295 116,-139 302,-177 558,-114"/>
  <path class="fil1 str0" d="M20 4031c902,-87 1484,-186 1747,-296"/>
  <path class="fil1 str0" d="M266 4006c-3,-118 -4,-178 -4,-178 0,0 -34,63 -102,189"/>
  <path class="fil1 str0" d="M338 4238c165,-179 247,-268 247,-268"/>
  <path class="fil1 str0" d="M236 4155c174,-116 261,-175 261,-175"/>
  <path class="fil1 str0" d="M136 4092c285,-66 427,-99 427,-99"/>
  <path class="fil1 str0" d="M73 4065c301,-59 451,-88 451,-88"/>
  <path class="fil1 str0" d="M262 3839c243,88 365,130 367,125"/>
  <path class="fil1 str0" d="M264 3896c218,39 327,59 327,59"/>
  <path class="fil1 str0" d="M338 4238c768,-181 1260,-339 1477,-473"/>
  <path class="fil1 str0" d="M296 4575c246,-223 381,-361 408,-412"/>
  <path class="fil1 str0" d="M321 4484c189,-163 282,-266 278,-309"/>
  <path class="fil1 str0" d="M563 3993c303,7 473,25 511,54"/>
  <path class="fil1 str0" d="M941 4416c489,-241 695,-409 618,-504"/>
  <path class="fil1 str0" d="M537 3884c-174,-256 -261,-384 -261,-384 792,153 1298,166 1517,38"/>
  <path class="fil1 str0" d="M201 3606c197,211 296,316 296,316"/>
  <path class="fil1 str0" d="M239 3553c102,222 153,333 153,333"/>
  <path class="fil1 str0" d="M710 3927c561,-139 873,-232 935,-279"/>
  <path class="fil1 str0" d="M576 3581c395,150 700,162 915,37"/>
  <path class="fil1 str0" d="M340 3416c265,79 397,118 397,118"/>
  <path class="fil1 str0" d="M887 3448c542,57 813,86 813,86"/>
  <path class="fil1 str0" d="M1504 4210c254,-135 359,-245 314,-330"/>
  <path class="fil1 str0" d="M486 4513c331,-198 489,-329 475,-393"/>
  <path class="fil1 str0" d="M335 4268c781,-199 1310,-251 1586,-156"/>
 </g>
</svg>
